<svg id="Group_4668" data-name="Group 4668" xmlns="http://www.w3.org/2000/svg" width="769.691" height="148.444" viewBox="0 0 769.691 148.444">
  <path id="Path_159" data-name="Path 159" d="M325.092,1404.665a74.261,74.261,0,0,0-73.642,90.248,134.541,134.541,0,0,1,3.351,28.972v18.868a5.233,5.233,0,0,0,5.234,5.232H278.9a134.666,134.666,0,0,1,28.981,3.351,74.216,74.216,0,1,0,17.214-146.671Z" transform="translate(-249.707 -1404.656)" fill="#edb548"/>
  <g id="Group_246" data-name="Group 246" transform="translate(194.725 33.588)">
    <g id="Group_244" data-name="Group 244" transform="translate(0 16.519)">
      <path id="Path_273" data-name="Path 273" d="M489.212,1453.271a17.969,17.969,0,0,0-16.358,9.481,15.277,15.277,0,0,0-14.536-9.481,18.067,18.067,0,0,0-14.9,7.185l-.288-6.3H438.6v47.823h5.129v-27.754c.06-9.569,5.734-16,14.119-16,7.245,0,11.746,5.555,11.746,14.5v29.253h5.085v-27.753c.059-9.569,5.733-16,14.12-16,7.122,0,11.724,5.691,11.724,14.5l.066,29.251h5.062v-29.862c0-5.47-1.546-10.158-4.475-13.558A15.3,15.3,0,0,0,489.212,1453.271Z" transform="translate(-438.601 -1453.263)" fill="#212121"/>
      <path id="Path_274" data-name="Path 274" d="M550.2,1454.127l-17.809,38.243-18.835-38.243h-5.7l21.8,44.091-2.493,5.251c-3.818,8.13-6.5,9.574-12.155,9.574h-4.6v4.94h4.77c8.006,0,12.208-3.216,16.654-12.741l23.947-51.114Z" transform="translate(-436.463 -1453.236)" fill="#212121"/>
    </g>
    <g id="Group_245" data-name="Group 245" transform="translate(387.068 3.279)">
      <rect id="Rectangle_2177" data-name="Rectangle 2177" width="5.12" height="47.824" transform="translate(53.44 14.772)" fill="#212121"/>
      <rect id="Rectangle_2178" data-name="Rectangle 2178" width="6.387" height="7.123" transform="translate(52.806)" fill="#212121"/>
      <path id="Path_275" data-name="Path 275" d="M837.722,1494.564l-18.128-39.816h-5.515l21.742,47.824h3.846l21.278-47.824h-5.464Z" transform="translate(-814.078 -1439.976)" fill="#212121"/>
      <path id="Path_276" data-name="Path 276" d="M993.088,1454.742l-13.646,38.543-14.923-37.066h-2.847l-14.748,36.915-13.167-38.386h-5.41l16.45,47.824h3.778l14.529-36.627,14.636,36.627h3.769l16.943-47.822Z" transform="translate(-810.551 -1439.977)" fill="#212121"/>
      <path id="Path_277" data-name="Path 277" d="M903.893,1453.891c-13.668,0-23.975,10.632-23.975,24.731,0,14.171,10.307,24.858,23.975,24.858,9.7,0,17.514-5.156,21.986-14.52l.833-1.744h-5.559l-.331.692a18.552,18.552,0,0,1-16.929,10.488c-10.142,0-17.869-7.358-18.8-17.673h42.22l.065-1.15c.022-.376.045-.823.045-1.2C927.428,1464.415,917.31,1453.891,903.893,1453.891Zm18.335,21.853H885.182c1.246-9.828,8.929-16.83,18.71-16.83C913.7,1458.915,921.073,1465.77,922.228,1475.744Z" transform="translate(-812.046 -1440.003)" fill="#212121"/>
    </g>
    <path id="Path_151" data-name="Path 151" d="M580.782,1503.06c12.067,0,20.068-6.206,20.068-15.692,0-11.51-9.533-13-16.7-14.272-4.311-.769-7.782-1.37-7.782-3.953,0-2.1,1.683-3.345,4.189-3.345,2.832,0,4.78,1.347,4.78,4.245h14.637c-.178-9.2-7.669-15.344-19.227-15.344-11.629,0-19.38,5.874-19.38,14.97,0,11.008,9.329,13.132,16.367,14.272,4.361.721,7.8,1.463,7.8,4.086,0,2.346-2.168,3.512-4.455,3.512-2.965,0-5.275-1.528-5.275-4.847H560.753c.143,9.836,7.661,16.368,20.031,16.368Zm49.336,0c14.749,0,25.447-10.159,25.447-24.181,0-14.069-10.7-24.179-25.447-24.179-14.8,0-25.446,10.116-25.446,24.179,0,14.022,10.649,24.181,25.447,24.181Zm0-14.043c-5.7,0-9.788-4.136-9.788-10.136s4.087-10.136,9.788-10.136,9.789,4.173,9.789,10.136c0,6-4.089,10.137-9.789,10.137ZM684.4,1503.06c12.78,0,22.478-8.3,24.246-20.63H693.291a9.143,9.143,0,0,1-8.886,6.621c-5.446,0-9.4-4.266-9.4-10.185s3.91-10.088,9.4-10.088a9.213,9.213,0,0,1,8.852,6.1h15.227c-1.706-12.067-11.275-20.111-24.031-20.111-14.652,0-25.109,10-25.109,24.048s10.506,24.241,25.061,24.241Zm30.281-52.554h15.393v-13.268H714.683Zm-.123,51.071h15.634v-45.391H714.564Zm61.284-45.434-1.6,3.51a21.529,21.529,0,0,0-13.868-4.875c-13.879,0-23.8,10.005-23.8,24.061,0,14.1,9.92,24.229,23.8,24.229a21.489,21.489,0,0,0,13.7-4.745l1.341,3.21H787.5v-45.394Zm-13.375,33.076a9.977,9.977,0,0,1-10.164-9.789c0-.188,0-.375.005-.563a9.949,9.949,0,0,1,9.575-10.311c.195-.007.39-.008.584,0a9.97,9.97,0,0,1,10.163,9.774c0,.181,0,.361,0,.542a9.979,9.979,0,0,1-9.6,10.347C762.845,1489.221,762.658,1489.223,762.47,1489.219Zm34.039,12.355h15.633V1439.8H796.509Z" transform="translate(-434.83 -1437.238)" fill="#212121"/>
  </g>
  <path id="Path_105" data-name="Path 105" d="M362.763,1450.735h0a22.952,22.952,0,0,0-32.458,0h0l-5.063,5.063a3.091,3.091,0,0,1-4.372,0l-4.982-4.983a22.952,22.952,0,0,0-32.458,0h0a22.951,22.951,0,0,0,0,32.458h0l37.443,37.443a3.091,3.091,0,0,0,4.372,0l37.517-37.524a22.952,22.952,0,0,0,0-32.458Z" transform="translate(-248.874 -1403.441)" fill="#fff"/>
</svg>
